<svg width="73" height="31" viewBox="0 0 73 31" fill="none" xmlns="http://www.w3.org/2000/svg">
<path d="M6.46591 0.90909V30H0.414773V0.90909H6.46591ZM23.3047 20.7102V8.18182H29.3558V30H23.5462V26.0369H23.3189C22.8265 27.3153 22.0073 28.3428 20.8615 29.1193C19.7251 29.8958 18.3378 30.2841 16.6996 30.2841C15.2412 30.2841 13.9581 29.9527 12.8501 29.2898C11.7422 28.6269 10.8757 27.6847 10.2507 26.4631C9.63518 25.2415 9.32268 23.7784 9.31321 22.0739V8.18182H15.3643V20.9943C15.3738 22.2822 15.7195 23.3002 16.4013 24.0483C17.0831 24.7964 17.9969 25.1705 19.1428 25.1705C19.8719 25.1705 20.5537 25.0047 21.1882 24.6733C21.8227 24.3324 22.334 23.8305 22.7223 23.1676C23.12 22.5047 23.3142 21.6856 23.3047 20.7102ZM50.3494 14.4034L44.8097 14.7443C44.715 14.2708 44.5114 13.8447 44.1989 13.4659C43.8864 13.0777 43.4744 12.7699 42.9631 12.5426C42.4612 12.3059 41.8598 12.1875 41.1591 12.1875C40.2216 12.1875 39.4309 12.3864 38.7869 12.7841C38.143 13.1723 37.821 13.6932 37.821 14.3466C37.821 14.8674 38.0294 15.3078 38.446 15.6676C38.8627 16.0275 39.5777 16.3163 40.5909 16.5341L44.5398 17.3295C46.661 17.7652 48.2424 18.4659 49.2841 19.4318C50.3258 20.3977 50.8466 21.6667 50.8466 23.2386C50.8466 24.6686 50.4252 25.9233 49.5824 27.0028C48.7491 28.0824 47.6032 28.9252 46.1449 29.5312C44.696 30.1278 43.0246 30.4261 41.1307 30.4261C38.2424 30.4261 35.9413 29.8248 34.2273 28.6222C32.5227 27.41 31.5237 25.7623 31.2301 23.679L37.1818 23.3665C37.3617 24.2472 37.7973 24.9195 38.4886 25.3835C39.1799 25.8381 40.0653 26.0653 41.1449 26.0653C42.2055 26.0653 43.0578 25.8617 43.7017 25.4545C44.3551 25.0379 44.6866 24.5028 44.696 23.8494C44.6866 23.3002 44.4545 22.8504 44 22.5C43.5455 22.1402 42.8447 21.8655 41.8977 21.6761L38.1193 20.9233C35.9886 20.4972 34.4025 19.7585 33.3608 18.7074C32.3286 17.6562 31.8125 16.3163 31.8125 14.6875C31.8125 13.286 32.1913 12.0786 32.9489 11.0653C33.7159 10.0521 34.7907 9.27083 36.1733 8.72159C37.5653 8.17235 39.1941 7.89773 41.0597 7.89773C43.8153 7.89773 45.9839 8.48011 47.5653 9.64489C49.1563 10.8097 50.0843 12.3958 50.3494 14.4034ZM58.7081 17.3864V30H52.657V0.90909H58.5376V12.0312H58.7933C59.2857 10.7434 60.0812 9.73485 61.1797 9.00568C62.2782 8.26705 63.656 7.89773 65.3132 7.89773C66.8284 7.89773 68.1494 8.22917 69.2763 8.89205C70.4126 9.54545 71.2933 10.4877 71.9183 11.7188C72.5528 12.9403 72.8653 14.4034 72.8558 16.108V30H66.8047V17.1875C66.8142 15.8428 66.4732 14.7964 65.782 14.0483C65.1001 13.3002 64.1437 12.9261 62.9126 12.9261C62.0888 12.9261 61.3596 13.1013 60.7251 13.4517C60.1001 13.8021 59.6077 14.3134 59.2479 14.9858C58.8975 15.6487 58.7176 16.4489 58.7081 17.3864Z" fill="black"/>
</svg>
